<svg width="57" height="20" viewBox="0 0 57 20" fill="none" xmlns="http://www.w3.org/2000/svg">
<g clip-path="url(#clip0_1744_11794)">
<path d="M8.72844 9.40293H11.1558V12.8123C10.3984 13.0556 9.44213 13.1891 8.44804 13.1891C4.41921 13.1891 2.05132 9.73905 2.05132 6.36963C2.05132 3.06495 4.19312 0.746914 7.18121 0.746914C9.07203 0.746914 10.1722 1.38748 11.1565 2.27976V3.39209L13.0021 1.54649C11.8348 0.7567 10.1444 0.00610352 7.72831 0.00610352C2.42437 0.00610352 0 3.80063 0 6.91902C0 11.3577 3.23301 14.0317 7.29583 14.0317C9.26578 14.0317 11.0149 13.7309 13.0353 13.1687V9.64635C13.0353 9.46624 13.1145 9.34264 13.2328 9.23412L13.8704 8.59657H9.54086L8.72844 9.40293Z" fill="url(#paint0_linear_1744_11794)"/>
<path d="M19.6007 4.76904C16.5478 4.76904 14.6562 6.99982 14.6562 9.36768C14.6562 11.4115 16.1801 13.8381 19.2676 13.8381C22.2376 13.8381 24.0598 11.6029 24.0598 9.19361C24.0598 6.94934 22.2791 4.76987 19.6007 4.76987V4.76904ZM19.0942 5.41942C21.2466 5.41942 22.2051 8.22363 22.2051 10.2237C22.2051 13.1982 19.9737 13.257 19.7069 13.257C18.6858 13.257 17.9721 12.6399 17.4378 11.8304C16.9676 11.0844 16.5079 9.69846 16.5079 8.34421C16.5079 6.99524 16.9494 6.33657 17.6443 5.852C18.2126 5.48875 18.7446 5.41942 19.0935 5.41942H19.0942Z" fill="url(#paint1_linear_1744_11794)"/>
<path d="M39.5601 4.76831C36.8937 4.76831 35.4513 6.45642 35.4513 8.34121C35.4513 9.7761 36.4792 11.3949 38.5999 11.3949H39.1364C39.1364 11.3949 38.9903 11.7498 38.9896 12.0927C38.9896 12.5985 39.1712 12.8825 39.5569 13.3196C35.9079 13.5419 34.4414 15.0137 34.4414 16.5956C34.4414 17.9808 35.7678 19.3441 38.5554 19.3441C41.8555 19.3441 43.5647 17.5119 43.5647 15.7139C43.5647 14.4463 42.9331 13.7515 41.334 12.5532C40.8637 12.1877 40.7725 11.955 40.7725 11.6814C40.7725 11.2895 41.0069 11.0302 41.0928 10.9323C41.2443 10.7725 41.5065 10.5901 41.6045 10.5027C42.1418 10.0475 42.9007 9.37388 42.9007 8.02935C42.9007 7.10693 42.5171 6.31338 41.6429 5.57032H42.7101L43.5119 4.76848H39.5601V4.76831ZM38.8246 5.36819C39.3084 5.36819 39.7123 5.53927 40.1388 5.89423C40.612 6.32077 41.368 7.46702 41.368 8.88532C41.368 10.4159 40.1788 10.8349 39.5352 10.8349C39.2202 10.8349 38.8428 10.7468 38.5231 10.5282C37.8132 10.0678 37.1085 8.84235 37.1085 7.38411C37.1085 6.06829 37.8923 5.36819 38.8246 5.36819ZM39.8804 13.9006C40.0838 13.9006 40.2301 13.9173 40.2301 13.9173C40.2301 13.9173 40.7101 14.2602 41.0455 14.5163C41.8262 15.1335 42.313 15.6053 42.313 16.4457C42.313 17.601 41.2413 18.5068 39.5058 18.5068C37.6007 18.5068 36.1447 17.6198 36.1447 16.1714C36.1447 14.9716 37.1424 13.939 39.8804 13.9006Z" fill="url(#paint2_linear_1744_11794)"/>
<path d="M44.0884 13.5736H47.7487L48.3063 13.016L47.2565 12.8849C46.9739 12.8502 46.8059 12.606 46.8059 12.3694V1.3131C46.8059 1.09531 46.9069 0.983769 46.9807 0.912854L47.6409 0.252686H44.5194L43.707 1.06509H44.9203V12.5178C44.9203 12.6806 44.8691 12.7913 44.7591 12.9051L44.0884 13.5736Z" fill="url(#paint3_linear_1744_11794)"/>
<path d="M52.7072 4.76904C50.6633 4.76904 48.4922 6.32677 48.4922 9.12344C48.4922 11.4332 50.0499 13.8381 52.9604 13.8381C53.6861 13.8381 54.2837 13.7447 54.8437 13.4877C55.4443 13.2111 56.0223 12.762 56.4443 12.1975C55.6478 12.5992 54.9981 12.863 54.1352 12.863C52.4953 12.863 50.9142 11.6798 50.3611 9.50484L56.1541 7.16335C55.8195 5.97038 54.876 4.76904 52.7079 4.76904H52.7072ZM52.3288 5.40886C53.4254 5.40886 54.2181 6.31095 54.2181 7.01708C54.2181 7.24543 54.075 7.36602 53.7915 7.47755L50.2307 8.9177C50.2307 8.9177 50.1343 8.46931 50.1343 7.98473C50.1343 5.95223 51.6039 5.40886 52.3288 5.40886Z" fill="url(#paint4_linear_1744_11794)"/>
<path d="M29.964 4.76904C26.9111 4.76904 25.0195 6.99982 25.0195 9.36768C25.0195 11.4115 26.5434 13.8381 29.6309 13.8381C32.6009 13.8381 34.4231 11.6029 34.4231 9.19361C34.4231 6.94934 32.6423 4.76987 29.964 4.76987V4.76904ZM29.4575 5.41942C31.6099 5.41942 32.5684 8.22363 32.5684 10.2237C32.5684 13.1982 30.337 13.257 30.0702 13.257C29.049 13.257 28.3354 12.6399 27.8011 11.8304C27.3309 11.0844 26.8712 9.69846 26.8712 8.34421C26.8712 6.99524 27.3127 6.33657 28.0076 5.852C28.5758 5.48875 29.1079 5.41942 29.4567 5.41942H29.4575Z" fill="url(#paint5_linear_1744_11794)"/>
</g>
<defs>
<linearGradient id="paint0_linear_1744_11794" x1="6.9007" y1="-0.033599" x2="6.9007" y2="14.0309" gradientUnits="userSpaceOnUse">
<stop stop-color="#196EEF"/>
<stop offset="0.5" stop-color="#186DEE"/>
<stop offset="1" stop-color="#1065E7"/>
</linearGradient>
<linearGradient id="paint1_linear_1744_11794" x1="19.3238" y1="4.74756" x2="19.3238" y2="13.8419" gradientUnits="userSpaceOnUse">
<stop stop-color="#DE5744"/>
<stop offset="0.5" stop-color="#DB4632"/>
<stop offset="1" stop-color="#D13D29"/>
</linearGradient>
<linearGradient id="paint2_linear_1744_11794" x1="38.9695" y1="4.74758" x2="38.9695" y2="19.3496" gradientUnits="userSpaceOnUse">
<stop stop-color="#1A6FEF"/>
<stop offset="0.25" stop-color="#1E72EF"/>
<stop offset="0.5" stop-color="#166BEC"/>
<stop offset="0.75" stop-color="#1267E9"/>
<stop offset="1" stop-color="#1063E5" stop-opacity="0.87"/>
</linearGradient>
<linearGradient id="paint3_linear_1744_11794" x1="45.9733" y1="0.22133" x2="45.9733" y2="13.5864" gradientUnits="userSpaceOnUse">
<stop stop-color="#0AA561"/>
<stop offset="0.5" stop-color="#009B58"/>
<stop offset="1" stop-color="#00914B"/>
</linearGradient>
<linearGradient id="paint4_linear_1744_11794" x1="52.4351" y1="4.74756" x2="52.4351" y2="13.8168" gradientUnits="userSpaceOnUse">
<stop stop-color="#DE5644"/>
<stop offset="0.5" stop-color="#DA4531"/>
<stop offset="1" stop-color="#CE3A28"/>
</linearGradient>
<linearGradient id="paint5_linear_1744_11794" x1="29.6874" y1="4.76731" x2="29.6874" y2="13.8239" gradientUnits="userSpaceOnUse">
<stop stop-color="#FFC01A"/>
<stop offset="0.5" stop-color="#FFBA03"/>
<stop offset="1" stop-color="#FFB300"/>
</linearGradient>
<clipPath id="clip0_1744_11794">
<rect width="56.4451" height="19.3494" fill="white"/>
</clipPath>
</defs>
</svg>
