<svg width="117" height="48" viewBox="0 0 117 48" fill="none" xmlns="http://www.w3.org/2000/svg">
<mask id="mask0_1305_3" style="mask-type:alpha" maskUnits="userSpaceOnUse" x="0" y="0" width="117" height="48">
<rect width="117" height="48" fill="#D9D9D9"/>
</mask>
<g mask="url(#mask0_1305_3)">
<path d="M32.7311 17.8567C32.1073 18.5057 30.9575 18.3986 30.1629 17.6175L16.131 3.82363C15.3364 3.04255 15.198 1.8833 15.8218 1.23436C16.4457 0.585427 17.5955 0.692546 18.3901 1.47362L32.422 15.2675C33.2166 16.0485 33.355 17.2078 32.7311 17.8567Z" fill="white"/>
<path d="M0.945475 18.8566C0.586781 18.2024 0.687287 17.389 1.19409 16.8445L15.5288 1.44286C16.0789 0.851833 17.0099 0.858513 17.5521 1.45738C18.0291 1.98428 18.036 2.79016 17.568 3.32491L3.70632 19.1631C2.92846 20.0519 1.5148 19.8949 0.945475 18.8566Z" fill="white"/>
<path d="M0.816406 17.7702C0.816406 17.244 1.23953 16.8174 1.76148 16.8174H2.9105C3.43245 16.8174 3.85558 17.244 3.85558 17.7702V39.4199C3.85558 39.9461 3.43245 40.3727 2.9105 40.3727H1.76148C1.23953 40.3727 0.816406 39.9461 0.816406 39.4199V28.595V17.7702Z" fill="white"/>
<path d="M111.215 40.7611L110.089 38.4801H109.751V30.5422C109.751 29.3662 109.489 28.4538 108.963 27.805C108.457 27.1562 107.744 26.8318 106.824 26.8318C106.299 26.8318 105.802 26.9737 105.333 27.2576C104.882 27.5414 104.517 27.9267 104.235 28.4133L104.263 25.4936H107.021L103.391 30.603H102.659L100.999 26.2539C101.449 25.9701 102.04 25.7166 102.772 25.4936C103.503 25.2706 104.282 25.0982 105.108 24.9766C105.952 24.8346 106.777 24.7637 107.584 24.7637C109.761 24.7637 111.421 25.2503 112.566 26.2235C113.729 27.1765 114.31 28.5653 114.31 30.3901V37.3244L113.1 35.0738L115.999 38.1151V38.7842L111.918 40.7611H111.215ZM104.995 40.8219C103.757 40.8219 102.743 40.4367 101.955 39.6662C101.167 38.8957 100.773 37.9022 100.773 36.6857C100.773 34.0296 102.837 32.2859 106.965 31.4546L110.399 30.7551V32.3974L108.316 32.9449C107.34 33.2084 106.627 33.5531 106.177 33.9789C105.745 34.4047 105.53 34.9623 105.53 35.6517C105.53 36.341 105.699 36.8783 106.036 37.2636C106.393 37.6285 106.881 37.811 107.5 37.811C108.55 37.811 109.442 37.4866 110.173 36.8378V38.4801H109.864C109.282 39.2506 108.579 39.8386 107.753 40.2441C106.927 40.6293 106.008 40.8219 104.995 40.8219Z" fill="white"/>
<path d="M86.4704 40.3657V39.8487L88.6656 37.3244L88.2153 38.176V28.9911L89.4255 31.2721L86.2734 27.6834V27.0143L91.8459 25.007H92.7183L92.5213 28.0787H92.7746V38.2064L92.3524 37.2636L95.3638 39.8487V40.3657H86.4704ZM92.3243 30.1164L92.3524 28.0787H92.662C93.1874 27.0447 93.8628 26.2336 94.6884 25.6457C95.5139 25.0577 96.3676 24.7637 97.2494 24.7637C98.0374 24.7637 98.741 24.936 99.3602 25.2807L97.3339 31.333H96.574L93.3375 27.7746L96.5458 28.4437C95.5702 28.4437 94.7259 28.5856 94.0129 28.8695C93.2999 29.1533 92.7371 29.569 92.3243 30.1164Z" fill="white"/>
<path d="M74.9264 42.7385L68.1719 26.9844H69.5791V29.4479L66.9336 25.7983V25.2812H74.8419V25.7983L73.0126 28.87H72.6186V26.1632L77.6282 37.7507L76.812 38.2069L79.9641 25.5854V28.5051H79.7389L77.8252 25.7983V25.2812H84.3826V25.7983L81.8497 29.3566V26.9844H83.2569L72.8719 48H72.1402L68.3126 44.6241V44.1071L75.0952 41.0049L74.9264 42.7385Z" fill="white"/>
<path d="M57.9097 40.8226C57.1592 40.8226 56.39 40.7517 55.602 40.6097C54.8139 40.4678 54.0541 40.2752 53.3223 40.0319C52.6093 39.7886 51.9902 39.5047 51.4648 39.1803L53.069 34.9224H53.8008L57.375 40.0319H54.6732L54.6451 37.173C54.9453 37.7002 55.4143 38.1158 56.0522 38.42C56.6902 38.7038 57.4313 38.8458 58.2756 38.8458C59.0448 38.8458 59.6359 38.7038 60.0486 38.42C60.4802 38.1158 60.6959 37.69 60.6959 37.1426C60.6959 36.6154 60.4802 36.1897 60.0486 35.8652C59.6359 35.5408 59.1011 35.2671 58.4445 35.0441C57.8065 34.821 57.1217 34.598 56.39 34.375C55.677 34.1317 54.9922 33.8377 54.3355 33.493C53.6976 33.128 53.1628 32.6617 52.7313 32.094C52.3185 31.506 52.1121 30.7558 52.1121 29.8434C52.1121 28.2416 52.6938 27.0048 53.857 26.133C55.0391 25.2611 56.6995 24.8252 58.8385 24.8252C59.5327 24.8252 60.2363 24.886 60.9492 25.0077C61.6622 25.1293 62.3564 25.3017 63.0318 25.5247C63.7073 25.7477 64.2889 26.0113 64.7768 26.3155L63.1726 30.5125H62.4127L58.8103 25.5551H61.5684L61.5965 28.414C61.3151 27.9071 60.8648 27.5117 60.2456 27.2279C59.6265 26.944 58.9792 26.8021 58.3037 26.8021C57.647 26.8021 57.1311 26.9237 56.7558 27.167C56.3994 27.3901 56.2211 27.7145 56.2211 28.1403C56.2211 28.6674 56.4275 29.0932 56.8403 29.4176C57.2718 29.742 57.8159 30.0259 58.4726 30.2692C59.1293 30.5125 59.8141 30.7558 60.5271 30.9991C61.2588 31.2424 61.953 31.5465 62.6097 31.9115C63.2664 32.2562 63.8011 32.7124 64.2139 33.2801C64.6267 33.8478 64.833 34.5676 64.833 35.4395C64.833 37.1629 64.2326 38.4909 63.0318 39.4236C61.8498 40.3563 60.1424 40.8226 57.9097 40.8226Z" fill="white"/>
<path d="M40.1178 40.8226C38.4854 40.8226 37.0689 40.5083 35.8681 39.8798C34.6861 39.231 33.7667 38.3287 33.11 37.173C32.4533 36.0173 32.125 34.6487 32.125 33.0672C32.125 31.4452 32.4721 30.0157 33.1663 28.7789C33.8605 27.5421 34.8174 26.579 36.037 25.8897C37.2753 25.18 38.6918 24.8252 40.2866 24.8252C41.9002 24.8252 43.3074 25.1496 44.5082 25.7984C45.709 26.427 46.6377 27.3191 47.2944 28.4748C47.9511 29.6305 48.2794 30.9991 48.2794 32.5806C48.2794 34.1824 47.9323 35.6118 47.2381 36.8689C46.5439 38.1057 45.5776 39.0789 44.3393 39.7886C43.1198 40.4779 41.7126 40.8226 40.1178 40.8226ZM40.5399 38.7849C41.1403 38.7849 41.6563 38.5822 42.0878 38.1767C42.5194 37.7711 42.8571 37.2034 43.101 36.4735C43.3449 35.7233 43.4669 34.8515 43.4669 33.858C43.4669 32.317 43.3261 31.0295 43.0447 29.9955C42.782 28.9614 42.3786 28.1808 41.8345 27.6536C41.3092 27.1265 40.6525 26.8629 39.8645 26.8629C39.2828 26.8629 38.7669 27.0656 38.3166 27.4712C37.8663 27.8767 37.5192 28.4545 37.2753 29.2047C37.0314 29.9346 36.9094 30.7963 36.9094 31.7899C36.9094 33.3308 37.0501 34.6183 37.3316 35.6523C37.613 36.6864 38.0164 37.467 38.5417 37.9942C39.0858 38.5213 39.7519 38.7849 40.5399 38.7849Z" fill="white"/>
<path d="M15.7631 40.3661V38.6021H19.675C21.1573 38.6021 22.2736 38.2371 23.0241 37.5072C23.7934 36.7773 24.178 35.6926 24.178 34.253C24.178 32.9148 23.8497 31.8909 23.193 31.1812C22.5363 30.4513 21.5982 30.0864 20.3786 30.0864H16.4104V28.5657H21.9828C24.497 28.5657 26.392 29.0118 27.6678 29.9039C28.9437 30.796 29.5816 32.1241 29.5816 33.888C29.5816 35.3073 29.2157 36.5036 28.484 37.4768C27.7522 38.4298 26.6546 39.1495 25.1912 39.6362C23.7465 40.1228 21.9359 40.3661 19.7595 40.3661H15.7631ZM11.3164 40.3661V39.697L13.3146 37.6593V22.0876L11.3164 20.05V19.3809H18.2679V40.3661H11.3164ZM23.2493 29.0523V27.9574H24.3187V29.0523H23.2493ZM16.326 28.9915V28.6873L20.8008 28.2007C21.6639 28.1196 22.3205 27.7851 22.7708 27.1971C23.2399 26.6091 23.4744 25.8082 23.4744 24.7944C23.4744 22.3614 22.2924 21.1448 19.9283 21.1448H15.9882V19.3809H20.4631C23.2024 19.3809 25.2099 19.7661 26.4858 20.5366C27.7804 21.2868 28.4277 22.4729 28.4277 24.0949C28.4277 25.7778 27.7898 27.0146 26.5139 27.8054C25.2381 28.5961 23.2305 28.9915 20.4912 28.9915H16.326Z" fill="white"/>
</g>
</svg>
