<svg width="20" height="20" viewBox="0 0 20 20" fill="none" xmlns="http://www.w3.org/2000/svg">
<rect width="20" height="20" fill="#BF9A72"/>
<mask id="mask0_3339_16292" style="mask-type:alpha" maskUnits="userSpaceOnUse" x="4" y="2" width="13" height="15">
<rect x="4" y="2" width="12.439" height="15" fill="#D9D9D9"/>
</mask>
<g mask="url(#mask0_3339_16292)">
<path d="M15.9758 8.53301C15.7475 8.77043 15.3268 8.73124 15.0362 8.44548L9.90251 3.39895C9.61182 3.11319 9.56119 2.68907 9.78943 2.45166C10.0177 2.21424 10.4383 2.25343 10.729 2.53919L15.8627 7.58572C16.1534 7.87148 16.204 8.2956 15.9758 8.53301Z" fill="white"/>
<path d="M4.34619 8.89895C4.21496 8.65961 4.25173 8.36201 4.43715 8.1628L9.68154 2.52807C9.88279 2.31184 10.2234 2.31428 10.4218 2.53338C10.5963 2.72615 10.5988 3.02098 10.4276 3.21662L5.35626 9.01107C5.07167 9.33624 4.55448 9.27882 4.34619 8.89895Z" fill="white"/>
<path d="M4.29883 8.50141C4.29883 8.3089 4.45363 8.15283 4.64459 8.15283H5.06496C5.25592 8.15283 5.41072 8.3089 5.41072 8.50141V16.4221C5.41072 16.6146 5.25592 16.7706 5.06496 16.7706H4.64459C4.45363 16.7706 4.29883 16.6146 4.29883 16.4221V12.4617V8.50141Z" fill="white"/>
<path d="M9.15613 15.854V15.2087H10.5873C11.1296 15.2087 11.538 15.0752 11.8126 14.8081C12.094 14.5411 12.2348 14.1442 12.2348 13.6175C12.2348 13.128 12.1146 12.7534 11.8744 12.4937C11.6341 12.2267 11.2909 12.0932 10.8447 12.0932H9.39295V11.5368H11.4316C12.3515 11.5368 13.0447 11.7 13.5115 12.0264C13.9783 12.3528 14.2117 12.8387 14.2117 13.484C14.2117 14.0033 14.0778 14.4409 13.8101 14.797C13.5424 15.1456 13.1408 15.409 12.6054 15.587C12.0769 15.765 11.4145 15.854 10.6182 15.854H9.15613ZM7.5293 15.854V15.6092L8.26034 14.8637V9.1668L7.5293 8.4213V8.17651H10.0725V15.854H7.5293ZM11.895 11.7148V11.3143H12.2862V11.7148H11.895ZM9.36206 11.6926V11.5813L10.9992 11.4033C11.3149 11.3736 11.5552 11.2512 11.7199 11.0361C11.8915 10.821 11.9774 10.528 11.9774 10.1571C11.9774 9.26694 11.5449 8.82187 10.68 8.82187H9.2385V8.17651H10.8756C11.8778 8.17651 12.6123 8.31745 13.0791 8.59933C13.5527 8.8738 13.7895 9.30774 13.7895 9.90117C13.7895 10.5169 13.5561 10.9693 13.0894 11.2586C12.6226 11.5479 11.8881 11.6926 10.8859 11.6926H9.36206Z" fill="white"/>
</g>
</svg>
