<svg width="79" height="27" viewBox="0 0 79 27" fill="none" xmlns="http://www.w3.org/2000/svg">
<g clip-path="url(#clip0_1753_10695)">
<path d="M12.9078 13.3321H16.2433V18.0169C15.2026 18.3513 13.8885 18.5347 12.5225 18.5347C6.9865 18.5347 3.73278 13.7939 3.73278 9.16404C3.73278 4.62308 6.67583 1.43787 10.7818 1.43787C13.3799 1.43787 14.8917 2.31806 16.2442 3.54415V5.07261L18.7803 2.53656C17.1762 1.45132 14.8535 0.419922 11.5335 0.419922C4.24538 0.419922 0.914062 5.63398 0.914062 9.91895C0.914062 16.0182 5.35654 19.6924 10.9393 19.6924C13.6462 19.6924 16.0496 19.2792 18.8259 18.5067V13.6666C18.8259 13.4191 18.9347 13.2493 19.0972 13.1001L19.9733 12.2241H14.0241L12.9078 13.3321Z" fill="url(#paint0_linear_1753_10695)"/>
<path d="M27.8489 6.96509C23.6539 6.96509 21.0547 10.0304 21.0547 13.2841C21.0547 16.0925 23.1487 19.4268 27.3912 19.4268C31.4722 19.4268 33.9762 16.3555 33.9762 13.0449C33.9762 9.96103 31.5292 6.96623 27.8489 6.96623V6.96509ZM27.1529 7.85877C30.1105 7.85877 31.4276 11.712 31.4276 14.4604C31.4276 18.5476 28.3614 18.6284 27.9948 18.6284C26.5916 18.6284 25.6109 17.7804 24.8768 16.6681C24.2307 15.643 23.599 13.7386 23.599 11.8777C23.599 10.0241 24.2057 9.11903 25.1606 8.45317C25.9414 7.95404 26.6725 7.85877 27.1518 7.85877H27.1529Z" fill="url(#paint1_linear_1753_10695)"/>
<path d="M55.2719 6.96387C51.608 6.96387 49.626 9.2835 49.626 11.8734C49.626 13.8451 51.0385 16.0694 53.9525 16.0694H54.6897C54.6897 16.0694 54.4889 16.5572 54.4879 17.0283C54.4879 17.7233 54.7374 18.1136 55.2675 18.7142C50.2534 19.0197 48.2383 21.0421 48.2383 23.2157C48.2383 25.1191 50.0609 26.9924 53.8913 26.9924C58.4259 26.9924 60.7745 24.4749 60.7745 22.0042C60.7745 20.2624 59.9068 19.3076 57.7093 17.6611C57.0632 17.1589 56.9378 16.839 56.9378 16.4631C56.9378 15.9246 57.2599 15.5683 57.378 15.4338C57.5861 15.2142 57.9465 14.9636 58.0811 14.8435C58.8194 14.2181 59.8622 13.2924 59.8622 11.4449C59.8622 10.1774 59.335 9.08695 58.1339 8.0659H59.6003L60.7021 6.96409H55.2719V6.96387ZM54.2612 7.78816C54.926 7.78816 55.481 8.02325 56.0671 8.51099C56.7173 9.0971 57.7561 10.6722 57.7561 12.621C57.7561 14.7242 56.1221 15.3 55.2377 15.3C54.8048 15.3 54.2862 15.1788 53.847 14.8785C52.8715 14.2459 51.9032 12.562 51.9032 10.5582C51.9032 8.75017 52.9801 7.78816 54.2612 7.78816ZM55.712 19.5126C55.9915 19.5126 56.1925 19.5355 56.1925 19.5355C56.1925 19.5355 56.8521 20.0066 57.3129 20.3586C58.3858 21.2067 59.0546 21.855 59.0546 23.0097C59.0546 24.5972 57.5821 25.8419 55.1972 25.8419C52.5795 25.8419 50.5787 24.6231 50.5787 22.6329C50.5787 20.9842 51.9498 19.5653 55.712 19.5126Z" fill="url(#paint2_linear_1753_10695)"/>
<path d="M61.4927 19.0635H66.5224L67.2886 18.2973L65.846 18.1172C65.4577 18.0695 65.2269 17.734 65.2269 17.4088V2.21639C65.2269 1.91712 65.3657 1.76386 65.467 1.66641L66.3743 0.759277H62.0851L60.9688 1.8756H62.636V17.6127C62.636 17.8364 62.5656 17.9886 62.4144 18.145L61.4927 19.0635Z" fill="url(#paint3_linear_1753_10695)"/>
<path d="M73.3387 6.96509C70.5303 6.96509 67.5469 9.10556 67.5469 12.9485C67.5469 16.1223 69.6873 19.4268 73.6866 19.4268C74.6838 19.4268 75.505 19.2985 76.2744 18.9454C77.0998 18.5654 77.894 17.9482 78.4738 17.1725C77.3794 17.7245 76.4867 18.0869 75.3009 18.0869C73.0476 18.0869 70.875 16.4611 70.1149 13.4725L78.0751 10.2551C77.6153 8.61585 76.3188 6.96509 73.3397 6.96509H73.3387ZM72.8187 7.84426C74.3255 7.84426 75.4148 9.08382 75.4148 10.0541C75.4148 10.3679 75.2182 10.5336 74.8287 10.6868L69.9358 12.6658C69.9358 12.6658 69.8033 12.0496 69.8033 11.3838C69.8033 8.59091 71.8226 7.84426 72.8187 7.84426Z" fill="url(#paint4_linear_1753_10695)"/>
<path d="M42.0871 6.96509C37.8922 6.96509 35.293 10.0304 35.293 13.2841C35.293 16.0925 37.3869 19.4268 41.6294 19.4268C45.7105 19.4268 48.2144 16.3555 48.2144 13.0449C48.2144 9.96103 45.7675 6.96623 42.0871 6.96623V6.96509ZM41.3912 7.85877C44.3488 7.85877 45.6659 11.712 45.6659 14.4604C45.6659 18.5476 42.5997 18.6284 42.2331 18.6284C40.8299 18.6284 39.8493 17.7804 39.1152 16.6681C38.469 15.643 37.8373 13.7386 37.8373 11.8777C37.8373 10.0241 38.444 9.11903 39.3989 8.45317C40.1797 7.95404 40.9108 7.85877 41.3901 7.85877H41.3912Z" fill="url(#paint5_linear_1753_10695)"/>
</g>
<defs>
<linearGradient id="paint0_linear_1753_10695" x1="10.3963" y1="0.365367" x2="10.3963" y2="19.6914" gradientUnits="userSpaceOnUse">
<stop stop-color="#196EEF"/>
<stop offset="0.5" stop-color="#186DEE"/>
<stop offset="1" stop-color="#1065E7"/>
</linearGradient>
<linearGradient id="paint1_linear_1753_10695" x1="27.4684" y1="6.93557" x2="27.4684" y2="19.4321" gradientUnits="userSpaceOnUse">
<stop stop-color="#DE5744"/>
<stop offset="0.5" stop-color="#DB4632"/>
<stop offset="1" stop-color="#D13D29"/>
</linearGradient>
<linearGradient id="paint2_linear_1753_10695" x1="54.4604" y1="6.93538" x2="54.4604" y2="27" gradientUnits="userSpaceOnUse">
<stop stop-color="#1A6FEF"/>
<stop offset="0.25" stop-color="#1E72EF"/>
<stop offset="0.5" stop-color="#166BEC"/>
<stop offset="0.75" stop-color="#1267E9"/>
<stop offset="1" stop-color="#1063E5" stop-opacity="0.87"/>
</linearGradient>
<linearGradient id="paint3_linear_1753_10695" x1="64.0828" y1="0.716192" x2="64.0828" y2="19.0811" gradientUnits="userSpaceOnUse">
<stop stop-color="#0AA561"/>
<stop offset="0.5" stop-color="#009B58"/>
<stop offset="1" stop-color="#00914B"/>
</linearGradient>
<linearGradient id="paint4_linear_1753_10695" x1="72.9648" y1="6.93557" x2="72.9648" y2="19.3977" gradientUnits="userSpaceOnUse">
<stop stop-color="#DE5644"/>
<stop offset="0.5" stop-color="#DA4531"/>
<stop offset="1" stop-color="#CE3A28"/>
</linearGradient>
<linearGradient id="paint5_linear_1753_10695" x1="41.7071" y1="6.96271" x2="41.7071" y2="19.4073" gradientUnits="userSpaceOnUse">
<stop stop-color="#FFC01A"/>
<stop offset="0.5" stop-color="#FFBA03"/>
<stop offset="1" stop-color="#FFB300"/>
</linearGradient>
<clipPath id="clip0_1753_10695">
<rect width="77.5611" height="26.5879" fill="white" transform="translate(0.914062 0.411865)"/>
</clipPath>
</defs>
</svg>
